<mxfile host="Electron" modified="2024-11-27T11:36:06.089Z" agent="Mozilla/5.0 (Windows NT 10.0; Win64; x64) AppleWebKit/537.36 (KHTML, like Gecko) draw.io/24.2.5 Chrome/120.0.6099.109 Electron/28.1.0 Safari/537.36" etag="ke5I69ITLr1JkilytJfb" version="24.2.5" type="device">
  <diagram name="Page-1" id="0Qu3-L6_84df8sEtbHUp">
    <mxGraphModel dx="1036" dy="614" grid="1" gridSize="10" guides="1" tooltips="1" connect="1" arrows="1" fold="1" page="1" pageScale="1" pageWidth="850" pageHeight="1100" math="0" shadow="0">
      <root>
        <mxCell id="0" />
        <mxCell id="1" parent="0" />
        <mxCell id="Yff452wZ_PuaFCuY55Qe-1" value="Constituent" style="shape=umlLifeline;participant=umlActor;perimeter=lifelinePerimeter;whiteSpace=wrap;html=1;container=1;collapsible=0;recursiveResize=0;verticalAlign=top;spacingTop=36;outlineConnect=0;fontSize=20;fontStyle=1;size=40;" parent="1" vertex="1">
          <mxGeometry x="150" y="70" width="40" height="410" as="geometry" />
        </mxCell>
        <mxCell id="Yff452wZ_PuaFCuY55Qe-2" value="&lt;br&gt;&lt;div&gt;Constituency connect&lt;/div&gt;&lt;div&gt;System&lt;/div&gt;" style="html=1;align=center;verticalAlign=middle;dashed=0;fontSize=16;" parent="1" vertex="1">
          <mxGeometry x="590" y="70" width="160" height="70" as="geometry" />
        </mxCell>
        <mxCell id="Yff452wZ_PuaFCuY55Qe-3" value="" style="endArrow=none;dashed=1;html=1;rounded=0;entryX=0.5;entryY=1;entryDx=0;entryDy=0;" parent="1" edge="1">
          <mxGeometry width="50" height="50" relative="1" as="geometry">
            <mxPoint x="680" y="490" as="sourcePoint" />
            <mxPoint x="680" y="140" as="targetPoint" />
          </mxGeometry>
        </mxCell>
        <mxCell id="Yff452wZ_PuaFCuY55Qe-4" value="" style="endArrow=classic;html=1;rounded=0;" parent="1" source="Yff452wZ_PuaFCuY55Qe-1" edge="1">
          <mxGeometry width="50" height="50" relative="1" as="geometry">
            <mxPoint x="240" y="220" as="sourcePoint" />
            <mxPoint x="680.5" y="220" as="targetPoint" />
            <Array as="points">
              <mxPoint x="560.5" y="220" />
            </Array>
          </mxGeometry>
        </mxCell>
        <mxCell id="Yff452wZ_PuaFCuY55Qe-5" value="SubmitComplaint(details)" style="text;html=1;strokeColor=none;fillColor=none;align=center;verticalAlign=middle;whiteSpace=wrap;rounded=0;" parent="1" vertex="1">
          <mxGeometry x="340" y="190" width="210" height="30" as="geometry" />
        </mxCell>
        <mxCell id="Yff452wZ_PuaFCuY55Qe-6" value="" style="endArrow=classic;html=1;rounded=0;" parent="1" target="Yff452wZ_PuaFCuY55Qe-1" edge="1">
          <mxGeometry width="50" height="50" relative="1" as="geometry">
            <mxPoint x="680.5" y="270" as="sourcePoint" />
            <mxPoint x="240" y="270" as="targetPoint" />
            <Array as="points">
              <mxPoint x="640.5" y="270" />
              <mxPoint x="560.5" y="270" />
            </Array>
          </mxGeometry>
        </mxCell>
        <mxCell id="Yff452wZ_PuaFCuY55Qe-7" value="ValidateComplaint(ComplaintDetails)" style="text;html=1;strokeColor=none;fillColor=none;align=center;verticalAlign=middle;whiteSpace=wrap;rounded=0;" parent="1" vertex="1">
          <mxGeometry x="320" y="240" width="210" height="30" as="geometry" />
        </mxCell>
        <mxCell id="Yff452wZ_PuaFCuY55Qe-10" value="" style="endArrow=classic;html=1;rounded=0;" parent="1" edge="1" target="qQjdvQjDbcyBL49QrPB0-2">
          <mxGeometry width="50" height="50" relative="1" as="geometry">
            <mxPoint x="680" y="330" as="sourcePoint" />
            <mxPoint x="170" y="330" as="targetPoint" />
            <Array as="points">
              <mxPoint x="490.5" y="330" />
            </Array>
          </mxGeometry>
        </mxCell>
        <mxCell id="Yff452wZ_PuaFCuY55Qe-12" value="" style="endArrow=classic;html=1;rounded=0;" parent="1" target="Yff452wZ_PuaFCuY55Qe-1" edge="1">
          <mxGeometry width="50" height="50" relative="1" as="geometry">
            <mxPoint x="680" y="390" as="sourcePoint" />
            <mxPoint x="160" y="385.79999999999995" as="targetPoint" />
            <Array as="points">
              <mxPoint x="610" y="390" />
              <mxPoint x="320" y="390" />
            </Array>
          </mxGeometry>
        </mxCell>
        <mxCell id="Yff452wZ_PuaFCuY55Qe-16" value="AssignCmplaint(ComplaintId,Represenataive)" style="text;html=1;strokeColor=none;fillColor=none;align=center;verticalAlign=middle;whiteSpace=wrap;rounded=0;" parent="1" vertex="1">
          <mxGeometry x="340" y="290" width="220" height="30" as="geometry" />
        </mxCell>
        <mxCell id="Yff452wZ_PuaFCuY55Qe-17" value="SendConfirmation(ConfirmationId,User)" style="text;html=1;strokeColor=none;fillColor=none;align=center;verticalAlign=middle;whiteSpace=wrap;rounded=0;" parent="1" vertex="1">
          <mxGeometry x="330" y="360" width="260" height="30" as="geometry" />
        </mxCell>
        <mxCell id="qQjdvQjDbcyBL49QrPB0-2" value="Representative" style="shape=umlLifeline;participant=umlActor;perimeter=lifelinePerimeter;whiteSpace=wrap;html=1;container=1;collapsible=0;recursiveResize=0;verticalAlign=top;spacingTop=36;outlineConnect=0;fontSize=20;fontStyle=1;size=40;" vertex="1" parent="1">
          <mxGeometry x="300" y="70" width="40" height="410" as="geometry" />
        </mxCell>
      </root>
    </mxGraphModel>
  </diagram>
</mxfile>
